<?xml version="1.0" encoding="utf-8"?>
<!-- Generator: Adobe Illustrator 25.4.1, SVG Export Plug-In . SVG Version: 6.00 Build 0)  -->
<svg version="1.1" id="Слой_1" xmlns="http://www.w3.org/2000/svg" xmlns:xlink="http://www.w3.org/1999/xlink" x="0px" y="0px"
	 viewBox="0 0 51 38" style="enable-background:new 0 0 51 38;" xml:space="preserve">
<style type="text/css">
	.st0{fill:#FFFFFF;}
</style>
<g>
	<g>
		<path class="st0" d="M25,23.9h0.3c3.1,0,5.6-0.9,7.5-2.6c4.1-3.6,3.4-9.9,3.3-10.5c-0.3-4.5-2.9-6.6-5.1-7.6
			c-1.6-0.7-3.6-1.2-5.7-1.2h-0.2c-1.2,0-3.5,0.2-5.7,1.2c-2.2,1-4.9,3.1-5.2,7.7c-0.1,0.6-0.8,6.8,3.3,10.5
			C19.4,23,21.9,23.9,25,23.9L25,23.9z M17,11.1C17,11.1,17,11,17,11.1c0.4-6.1,5.7-6.7,8.1-6.7h0.1c2.9,0.1,7.7,1,8,6.7
			c0,0,0,0.1,0,0.1c0,0.1,0.8,5.8-2.6,8.8c-1.3,1.2-3.1,1.8-5.4,1.8h-0.1c-2.3,0-4.1-0.6-5.4-1.8C16.3,16.9,17,11.1,17,11.1L17,11.1
			z M17,11.1"/>
		<g>
			<path class="st0" d="M31.5,25.9c0.2,0.1,4.4,2.4,9.7,3.5c2.5,0.7,2.7,2.8,2.8,4.7c0,0.1,0,0.1,0,0.2c0,0.5,0,1.1-0.1,1.6h2.9
				c0.1-0.8,0.1-1.5,0.1-1.7v0c0-0.1,0-0.1,0-0.2c-0.1-1.7-0.2-5.6-4.8-6.8c0,0-0.1,0-0.1,0c-4.8-1-8.7-3.2-8.8-3.2
				c-0.6-0.4-1.5-0.2-2,0.3C30.7,24.9,30.9,25.6,31.5,25.9z"/>
			<path class="st0" d="M6.3,36c-0.1-0.6-0.1-1.2-0.1-1.7c0-0.1,0-0.1,0-0.2c0.1-1.9,0.3-4,2.8-4.7c5.3-1.1,9.5-3.4,9.7-3.5
				c0.6-0.4,0.8-1.1,0.3-1.6c-0.5-0.5-1.3-0.6-2-0.3c0,0-4,2.2-8.8,3.2c0,0-0.1,0-0.1,0c-4.6,1.3-4.7,5.1-4.8,6.8c0,0.1,0,0.1,0,0.2
				v0c0,0.2,0,0.9,0.1,1.7H6.3z"/>
		</g>
	</g>
</g>
</svg>
