<?xml version="1.0" encoding="utf-8"?>
<!-- Generator: Adobe Illustrator 25.4.1, SVG Export Plug-In . SVG Version: 6.00 Build 0)  -->
<svg version="1.1" id="Слой_1" xmlns="http://www.w3.org/2000/svg" xmlns:xlink="http://www.w3.org/1999/xlink" x="0px" y="0px"
	 viewBox="0 0 51 38" style="enable-background:new 0 0 51 38;" xml:space="preserve">
<style type="text/css">
	.st0{fill:#FFFFFF;}
</style>
<path class="st0" d="M44.2,30L44,29.4c-0.4-1.3-1.9-2.7-3.2-3l-4.9-1.3c-1.3-0.4-3.2,0.1-4.2,1.1l-1.8,1.8
	c-6.4-1.7-11.5-6.8-13.2-13.2l1.8-1.8c1-1,1.5-2.9,1.1-4.2l-1.3-4.9c-0.4-1.3-1.7-2.8-3-3.2l-0.6-0.2c-1.3-0.4-3.2,0-4.1,1L7.8,4.1
	C7.4,4.6,7.1,5.9,7.1,5.9c-0.1,8.4,3.2,16.5,9.2,22.5c5.9,5.9,14,9.2,22.4,9.2c0,0,1.4-0.3,1.9-0.8l2.7-2.7
	C44.2,33.2,44.6,31.3,44.2,30z"/>
</svg>
